<svg width="15" height="14" viewBox="0 0 15 14" fill="none" xmlns="http://www.w3.org/2000/svg">
<g clip-path="url(#clip0_19_8490)">
<path d="M7.5 0.17334C3.6325 0.17334 0.5 3.30759 0.5 7.17334C0.5 10.2668 2.5055 12.89 5.28625 13.8146C5.63625 13.8805 5.76458 13.6641 5.76458 13.478C5.76458 13.3118 5.75875 12.8713 5.75583 12.288C3.80867 12.7103 3.398 11.3488 3.398 11.3488C3.0795 10.5409 2.61925 10.3251 2.61925 10.3251C1.98517 9.89109 2.66825 9.89984 2.66825 9.89984C3.37117 9.94884 3.74042 10.6208 3.74042 10.6208C4.36458 11.6913 5.379 11.3821 5.77917 11.203C5.84217 10.7503 6.02242 10.4418 6.2225 10.2668C4.66792 10.0918 3.034 9.48976 3.034 6.80759C3.034 6.04342 3.30525 5.41926 3.75442 4.92926C3.67567 4.75251 3.43942 4.04084 3.81567 3.07659C3.81567 3.07659 4.40192 2.88876 5.74067 3.79409C6.30067 3.63834 6.89567 3.56134 7.49067 3.55784C8.08567 3.56134 8.68067 3.63834 9.24067 3.79409C10.5707 2.88876 11.1569 3.07659 11.1569 3.07659C11.5332 4.04084 11.2969 4.75251 11.2269 4.92926C11.6732 5.41926 11.9444 6.04342 11.9444 6.80759C11.9444 9.49676 10.3082 10.0888 8.75067 10.2609C8.99567 10.4709 9.22317 10.9003 9.22317 11.5559C9.22317 12.4928 9.21442 13.2453 9.21442 13.4728C9.21442 13.6565 9.33692 13.8753 9.69567 13.8053C12.4962 12.8871 14.5 10.2621 14.5 7.17334C14.5 3.30759 11.3657 0.17334 7.5 0.17334Z" fill="white"/>
</g>
<defs>
<clipPath id="clip0_19_8490">
<rect width="14" height="14" fill="white" transform="translate(0.5)"/>
</clipPath>
</defs>
</svg>
