<svg width="523" height="73" viewBox="0 0 523 73" fill="none" xmlns="http://www.w3.org/2000/svg">
<g filter="url(#filter0_d_38_10641)">
<path d="M503.545 63.1819H496.727H489.909H483.091H476.273V56.3637H469.455V49.5455V42.7273V35.9091V29.091V22.2728V15.4546V8.63642H476.273V1.81824H483.091H489.909H496.727H503.545H510.364V8.63642H517.182V15.4546V22.2728H510.364H503.545V15.4546H496.727H489.909H483.091V22.2728V29.091V35.9091V42.7273V49.5455H489.909H496.727H503.545V42.7273H510.364H517.182V49.5455V56.3637H510.364V63.1819H503.545Z" fill="url(#paint0_linear_38_10641)"/>
</g>
<g filter="url(#filter1_d_38_10641)">
<path d="M455.818 63.1819V56.3637H449V49.5455H442.182V42.7273H435.364V35.9091H428.545V42.7273V49.5455V56.3637V63.1819H421.727H414.909V56.3637V49.5455V42.7273V35.9091V29.091V22.2728V15.4546V8.63642V1.81824H421.727V8.63642H428.545V15.4546H435.364V22.2728H442.182V29.091H449V22.2728V15.4546V8.63642V1.81824H455.818H462.636V8.63642V15.4546V22.2728V29.091V35.9091V42.7273V49.5455V56.3637V63.1819H455.818Z" fill="url(#paint1_linear_38_10641)"/>
</g>
<g filter="url(#filter2_d_38_10641)">
<path d="M387.636 63.1819H380.818V56.3637V49.5455V42.7273V35.9091H374V29.091H367.182V22.2728V15.4546V8.63642V1.81824H374H380.818V8.63642V15.4546V22.2728H387.636H394.455V15.4546V8.63642V1.81824H401.273H408.091V8.63642V15.4546V22.2728V29.091H401.273V35.9091H394.455V42.7273V49.5455V56.3637V63.1819H387.636Z" fill="url(#paint2_linear_38_10641)"/>
</g>
<g filter="url(#filter3_d_38_10641)">
<path d="M346.727 63.1819H339.909H333.091H326.273H319.455V56.3637H312.636V49.5455V42.7273H319.455H326.273V49.5455H333.091H339.909H346.727V42.7273H339.909H333.091V35.9091H326.273H319.455V29.091H312.636V22.2728V15.4546V8.63642H319.455V1.81824H326.273H333.091H339.909H346.727H353.545V8.63642H360.364V15.4546V22.2728H353.545H346.727V15.4546H339.909H333.091H326.273V22.2728H333.091H339.909V29.091H346.727H353.545V35.9091H360.364V42.7273V49.5455V56.3637H353.545V63.1819H346.727Z" fill="url(#paint3_linear_38_10641)"/>
</g>
<g filter="url(#filter4_d_38_10641)">
<path d="M258.091 63.1819H251.273H244.455H237.636H230.818V56.3637H224V49.5455V42.7273V35.9091V29.091V22.2728V15.4546V8.63642H230.818V1.81824H237.636H244.455H251.273H258.091H264.909V8.63642H271.727V15.4546V22.2728V29.091V35.9091V42.7273V49.5455V56.3637H264.909V63.1819H258.091ZM251.273 49.5455H258.091V42.7273V35.9091V29.091V22.2728V15.4546H251.273H244.455H237.636V22.2728V29.091V35.9091V42.7273V49.5455H244.455H251.273Z" fill="url(#paint4_linear_38_10641)"/>
</g>
<g filter="url(#filter5_d_38_10641)">
<path d="M210.364 63.1819H203.545V56.3637H196.727V49.5455H189.909V42.7273H183.091V49.5455V56.3637V63.1819H176.273H169.455V56.3637V49.5455V42.7273V35.9091V29.091V22.2728V15.4546V8.63642V1.81824H176.273H183.091V8.63642V15.4546V22.2728H189.909V15.4546H196.727V8.63642H203.545V1.81824H210.364H217.182V8.63642V15.4546H210.364V22.2728H203.545V29.091H196.727V35.9091H203.545V42.7273H210.364V49.5455H217.182V56.3637V63.1819H210.364Z" fill="url(#paint5_linear_38_10641)"/>
</g>
<g filter="url(#filter6_d_38_10641)">
<path d="M155.818 63.1819H149V56.3637V49.5455V42.7273H142.182H135.364H128.545V49.5455V56.3637V63.1819H121.727H114.909V56.3637V49.5455V42.7273V35.9091V29.091V22.2728V15.4546H121.727V8.63642H128.545V1.81824H135.364H142.182H149V8.63642H155.818V15.4546H162.636V22.2728V29.091V35.9091V42.7273V49.5455V56.3637V63.1819H155.818ZM142.182 29.091H149V22.2728H142.182V15.4546H135.364V22.2728H128.545V29.091H135.364H142.182Z" fill="url(#paint6_linear_38_10641)"/>
</g>
<g filter="url(#filter7_d_38_10641)">
<path d="M101.273 63.1819H94.4546V56.3637H87.6364V49.5455H80.8182V42.7273H74V49.5455V56.3637V63.1819H67.1818H60.3636V56.3637V49.5455V42.7273V35.9091V29.091V22.2728V15.4546V8.63642V1.81824H67.1818H74H80.8182H87.6364H94.4546H101.273V8.63642H108.091V15.4546V22.2728V29.091V35.9091H101.273V42.7273V49.5455H108.091V56.3637V63.1819H101.273ZM87.6364 29.091H94.4546V22.2728V15.4546H87.6364H80.8182H74V22.2728V29.091H80.8182H87.6364Z" fill="url(#paint7_linear_38_10641)"/>
</g>
<g filter="url(#filter8_d_38_10641)">
<path d="M39.9091 63.1819H33.0909H26.2727H19.4545H12.6364H5.81818V56.3637V49.5455V42.7273V35.9091V29.091V22.2728V15.4546V8.63642V1.81824H12.6364H19.4545H26.2727H33.0909H39.9091H46.7273V8.63642H53.5454V15.4546V22.2728V29.091V35.9091V42.7273V49.5455V56.3637H46.7273V63.1819H39.9091ZM33.0909 49.5455H39.9091V42.7273V35.9091V29.091V22.2728V15.4546H33.0909H26.2727H19.4545V22.2728V29.091V35.9091V42.7273V49.5455H26.2727H33.0909Z" fill="url(#paint8_linear_38_10641)"/>
</g>
<g filter="url(#filter9_d_38_10641)">
<path fill-rule="evenodd" clip-rule="evenodd" d="M474.455 65V58.1818H467.636V6.81818H474.455V0H512.182V6.81818H519V24.0909H501.727V17.2727H484.909V47.7273H501.727V40.9091H519V58.1818H512.182V65H474.455ZM510.364 56.3636H517.182V42.7273H503.545V49.5455H483.091V15.4545H503.545V22.2727H517.182V8.63636H510.364V1.81818H476.273V8.63636H469.455V56.3636H476.273V63.1818H510.364V56.3636Z" fill="black"/>
</g>
<g filter="url(#filter10_d_38_10641)">
<path fill-rule="evenodd" clip-rule="evenodd" d="M454 65V58.1818H447.182V51.3636H440.364V44.5455H433.545V37.7273H430.364V65H413.091V0H423.545V6.81818H430.364V13.6364H437.182V20.4545H444V27.2727H447.182V0H464.455V65H454ZM449 29.0909H442.182V22.2727H435.364V15.4545H428.545V8.63636H421.727V1.81818H414.909V63.1818H428.545V35.9091H435.364V42.7273H442.182V49.5455H449V56.3636H455.818V63.1818H462.636V1.81818H449V29.0909Z" fill="black"/>
</g>
<g filter="url(#filter11_d_38_10641)">
<path fill-rule="evenodd" clip-rule="evenodd" d="M379 65V37.7273H372.182V30.9091H365.364V0H382.636V20.4545H392.636V0H409.909V30.9091H403.091V37.7273H396.273V65H379ZM394.455 35.9091H401.273V29.0909H408.091V1.81818H394.455V22.2727H380.818V1.81818H367.182V29.0909H374V35.9091H380.818V63.1818H394.455V35.9091Z" fill="black"/>
</g>
<g filter="url(#filter12_d_38_10641)">
<path fill-rule="evenodd" clip-rule="evenodd" d="M317.636 65V58.1818H310.818V40.9091H328.091V47.7273H344.909V44.5455H331.273V37.7273H317.636V30.9091H310.818V6.81818H317.636V0H355.364V6.81818H362.182V24.0909H344.909V17.2727H328.091V20.4545H341.727V27.2727H355.364V34.0909H362.182V58.1818H355.364V65H317.636ZM353.545 56.3636H360.364V35.9091H353.545V29.0909H339.909V22.2727H326.273V15.4545H346.727V22.2727H360.364V8.63636H353.545V1.81818H319.455V8.63636H312.636V29.0909H319.455V35.9091H333.091V42.7273H346.727V49.5455H326.273V42.7273H312.636V56.3636H319.455V63.1818H353.545V56.3636Z" fill="black"/>
</g>
<g filter="url(#filter13_d_38_10641)">
<path fill-rule="evenodd" clip-rule="evenodd" d="M229 65V58.1818H222.182V6.81818H229V0H266.727V6.81818H273.545V58.1818H266.727V65H229ZM264.909 56.3636H271.727V8.63636H264.909V1.81818H230.818V8.63636H224V56.3636H230.818V63.1818H264.909V56.3636ZM258.091 49.5455H237.636V15.4545H258.091V49.5455ZM256.273 17.2727H239.455V47.7273H256.273V17.2727Z" fill="black"/>
</g>
<g filter="url(#filter14_d_38_10641)">
<path fill-rule="evenodd" clip-rule="evenodd" d="M201.727 65V58.1818H194.909V51.3636H188.091V44.5455H184.909V65H167.636V0H184.909V20.4545H188.091V13.6364H194.909V6.81818H201.727V0H219V17.2727H212.182V24.0909H205.364V30.9091H198.545V34.0909H205.364V40.9091H212.182V47.7273H219V65H201.727ZM210.364 49.5455V42.7273H203.545V35.9091H196.727V29.0909H203.545V22.2727H210.364V15.4545H217.182V1.81818H203.545V8.63636H196.727V15.4545H189.909V22.2727H183.091V1.81818H169.455V63.1818H183.091V42.7273H189.909V49.5455H196.727V56.3636H203.545V63.1818H217.182V49.5455H210.364Z" fill="black"/>
</g>
<g filter="url(#filter15_d_38_10641)">
<path fill-rule="evenodd" clip-rule="evenodd" d="M147.182 65V44.5455H130.364V65H113.091V13.6364H119.909V6.81818H126.727V0H150.818V6.81818H157.636V13.6364H164.455V65H147.182ZM155.818 15.4545V8.63636H149V1.81818H128.545V8.63636H121.727V15.4545H114.909V63.1818H128.545V42.7273H149V63.1818H162.636V15.4545H155.818ZM140.364 24.0909V17.2727H137.182V24.0909H130.364V27.2727H147.182V24.0909H140.364ZM149 22.2727V29.0909H128.545V22.2727H135.364V15.4545H142.182V22.2727H149Z" fill="black"/>
</g>
<g filter="url(#filter16_d_38_10641)">
<path fill-rule="evenodd" clip-rule="evenodd" d="M92.6364 65V58.1818H85.8182V51.3636H79V44.5455H75.8182V65H58.5455V0H103.091V6.81818H109.909V37.7273H103.091V47.7273H109.909V65H92.6364ZM101.273 49.5455V35.9091H108.091V8.63636H101.273V1.81818H60.3637V63.1818H74V42.7273H80.8182V49.5455H87.6364V56.3636H94.4546V63.1818H108.091V49.5455H101.273ZM94.4546 29.0909H74V15.4545H94.4546V29.0909ZM92.6364 17.2727H75.8182V27.2727H92.6364V17.2727Z" fill="black"/>
</g>
<g filter="url(#filter17_d_38_10641)">
<path fill-rule="evenodd" clip-rule="evenodd" d="M4 65V0H48.5455V6.81818H55.3636V58.1818H48.5455V65H4ZM46.7273 56.3636H53.5455V8.63636H46.7273V1.81818H5.81818V63.1818H46.7273V56.3636ZM39.9091 49.5455H19.4545V15.4545H39.9091V49.5455ZM38.0909 17.2727H21.2727V47.7273H38.0909V17.2727Z" fill="black"/>
</g>
<defs>
<filter id="filter0_d_38_10641" x="465.455" y="1.81824" width="55.7273" height="69.3636" filterUnits="userSpaceOnUse" color-interpolation-filters="sRGB">
<feFlood flood-opacity="0" result="BackgroundImageFix"/>
<feColorMatrix in="SourceAlpha" type="matrix" values="0 0 0 0 0 0 0 0 0 0 0 0 0 0 0 0 0 0 127 0" result="hardAlpha"/>
<feOffset dy="4"/>
<feGaussianBlur stdDeviation="2"/>
<feComposite in2="hardAlpha" operator="out"/>
<feColorMatrix type="matrix" values="0 0 0 0 0 0 0 0 0 0 0 0 0 0 0 0 0 0 0.4 0"/>
<feBlend mode="normal" in2="BackgroundImageFix" result="effect1_dropShadow_38_10641"/>
<feBlend mode="normal" in="SourceGraphic" in2="effect1_dropShadow_38_10641" result="shape"/>
</filter>
<filter id="filter1_d_38_10641" x="410.909" y="1.81824" width="55.7273" height="69.3636" filterUnits="userSpaceOnUse" color-interpolation-filters="sRGB">
<feFlood flood-opacity="0" result="BackgroundImageFix"/>
<feColorMatrix in="SourceAlpha" type="matrix" values="0 0 0 0 0 0 0 0 0 0 0 0 0 0 0 0 0 0 127 0" result="hardAlpha"/>
<feOffset dy="4"/>
<feGaussianBlur stdDeviation="2"/>
<feComposite in2="hardAlpha" operator="out"/>
<feColorMatrix type="matrix" values="0 0 0 0 0 0 0 0 0 0 0 0 0 0 0 0 0 0 0.4 0"/>
<feBlend mode="normal" in2="BackgroundImageFix" result="effect1_dropShadow_38_10641"/>
<feBlend mode="normal" in="SourceGraphic" in2="effect1_dropShadow_38_10641" result="shape"/>
</filter>
<filter id="filter2_d_38_10641" x="363.182" y="1.81824" width="48.9091" height="69.3636" filterUnits="userSpaceOnUse" color-interpolation-filters="sRGB">
<feFlood flood-opacity="0" result="BackgroundImageFix"/>
<feColorMatrix in="SourceAlpha" type="matrix" values="0 0 0 0 0 0 0 0 0 0 0 0 0 0 0 0 0 0 127 0" result="hardAlpha"/>
<feOffset dy="4"/>
<feGaussianBlur stdDeviation="2"/>
<feComposite in2="hardAlpha" operator="out"/>
<feColorMatrix type="matrix" values="0 0 0 0 0 0 0 0 0 0 0 0 0 0 0 0 0 0 0.4 0"/>
<feBlend mode="normal" in2="BackgroundImageFix" result="effect1_dropShadow_38_10641"/>
<feBlend mode="normal" in="SourceGraphic" in2="effect1_dropShadow_38_10641" result="shape"/>
</filter>
<filter id="filter3_d_38_10641" x="308.636" y="1.81824" width="55.7273" height="69.3636" filterUnits="userSpaceOnUse" color-interpolation-filters="sRGB">
<feFlood flood-opacity="0" result="BackgroundImageFix"/>
<feColorMatrix in="SourceAlpha" type="matrix" values="0 0 0 0 0 0 0 0 0 0 0 0 0 0 0 0 0 0 127 0" result="hardAlpha"/>
<feOffset dy="4"/>
<feGaussianBlur stdDeviation="2"/>
<feComposite in2="hardAlpha" operator="out"/>
<feColorMatrix type="matrix" values="0 0 0 0 0 0 0 0 0 0 0 0 0 0 0 0 0 0 0.4 0"/>
<feBlend mode="normal" in2="BackgroundImageFix" result="effect1_dropShadow_38_10641"/>
<feBlend mode="normal" in="SourceGraphic" in2="effect1_dropShadow_38_10641" result="shape"/>
</filter>
<filter id="filter4_d_38_10641" x="220" y="1.81824" width="55.7273" height="69.3636" filterUnits="userSpaceOnUse" color-interpolation-filters="sRGB">
<feFlood flood-opacity="0" result="BackgroundImageFix"/>
<feColorMatrix in="SourceAlpha" type="matrix" values="0 0 0 0 0 0 0 0 0 0 0 0 0 0 0 0 0 0 127 0" result="hardAlpha"/>
<feOffset dy="4"/>
<feGaussianBlur stdDeviation="2"/>
<feComposite in2="hardAlpha" operator="out"/>
<feColorMatrix type="matrix" values="0 0 0 0 0 0 0 0 0 0 0 0 0 0 0 0 0 0 0.4 0"/>
<feBlend mode="normal" in2="BackgroundImageFix" result="effect1_dropShadow_38_10641"/>
<feBlend mode="normal" in="SourceGraphic" in2="effect1_dropShadow_38_10641" result="shape"/>
</filter>
<filter id="filter5_d_38_10641" x="165.455" y="1.81824" width="55.7273" height="69.3636" filterUnits="userSpaceOnUse" color-interpolation-filters="sRGB">
<feFlood flood-opacity="0" result="BackgroundImageFix"/>
<feColorMatrix in="SourceAlpha" type="matrix" values="0 0 0 0 0 0 0 0 0 0 0 0 0 0 0 0 0 0 127 0" result="hardAlpha"/>
<feOffset dy="4"/>
<feGaussianBlur stdDeviation="2"/>
<feComposite in2="hardAlpha" operator="out"/>
<feColorMatrix type="matrix" values="0 0 0 0 0 0 0 0 0 0 0 0 0 0 0 0 0 0 0.4 0"/>
<feBlend mode="normal" in2="BackgroundImageFix" result="effect1_dropShadow_38_10641"/>
<feBlend mode="normal" in="SourceGraphic" in2="effect1_dropShadow_38_10641" result="shape"/>
</filter>
<filter id="filter6_d_38_10641" x="110.909" y="1.81824" width="55.7273" height="69.3636" filterUnits="userSpaceOnUse" color-interpolation-filters="sRGB">
<feFlood flood-opacity="0" result="BackgroundImageFix"/>
<feColorMatrix in="SourceAlpha" type="matrix" values="0 0 0 0 0 0 0 0 0 0 0 0 0 0 0 0 0 0 127 0" result="hardAlpha"/>
<feOffset dy="4"/>
<feGaussianBlur stdDeviation="2"/>
<feComposite in2="hardAlpha" operator="out"/>
<feColorMatrix type="matrix" values="0 0 0 0 0 0 0 0 0 0 0 0 0 0 0 0 0 0 0.4 0"/>
<feBlend mode="normal" in2="BackgroundImageFix" result="effect1_dropShadow_38_10641"/>
<feBlend mode="normal" in="SourceGraphic" in2="effect1_dropShadow_38_10641" result="shape"/>
</filter>
<filter id="filter7_d_38_10641" x="56.3636" y="1.81824" width="55.7273" height="69.3636" filterUnits="userSpaceOnUse" color-interpolation-filters="sRGB">
<feFlood flood-opacity="0" result="BackgroundImageFix"/>
<feColorMatrix in="SourceAlpha" type="matrix" values="0 0 0 0 0 0 0 0 0 0 0 0 0 0 0 0 0 0 127 0" result="hardAlpha"/>
<feOffset dy="4"/>
<feGaussianBlur stdDeviation="2"/>
<feComposite in2="hardAlpha" operator="out"/>
<feColorMatrix type="matrix" values="0 0 0 0 0 0 0 0 0 0 0 0 0 0 0 0 0 0 0.4 0"/>
<feBlend mode="normal" in2="BackgroundImageFix" result="effect1_dropShadow_38_10641"/>
<feBlend mode="normal" in="SourceGraphic" in2="effect1_dropShadow_38_10641" result="shape"/>
</filter>
<filter id="filter8_d_38_10641" x="1.81818" y="1.81824" width="55.7273" height="69.3636" filterUnits="userSpaceOnUse" color-interpolation-filters="sRGB">
<feFlood flood-opacity="0" result="BackgroundImageFix"/>
<feColorMatrix in="SourceAlpha" type="matrix" values="0 0 0 0 0 0 0 0 0 0 0 0 0 0 0 0 0 0 127 0" result="hardAlpha"/>
<feOffset dy="4"/>
<feGaussianBlur stdDeviation="2"/>
<feComposite in2="hardAlpha" operator="out"/>
<feColorMatrix type="matrix" values="0 0 0 0 0 0 0 0 0 0 0 0 0 0 0 0 0 0 0.4 0"/>
<feBlend mode="normal" in2="BackgroundImageFix" result="effect1_dropShadow_38_10641"/>
<feBlend mode="normal" in="SourceGraphic" in2="effect1_dropShadow_38_10641" result="shape"/>
</filter>
<filter id="filter9_d_38_10641" x="463.636" y="0" width="59.3636" height="73" filterUnits="userSpaceOnUse" color-interpolation-filters="sRGB">
<feFlood flood-opacity="0" result="BackgroundImageFix"/>
<feColorMatrix in="SourceAlpha" type="matrix" values="0 0 0 0 0 0 0 0 0 0 0 0 0 0 0 0 0 0 127 0" result="hardAlpha"/>
<feOffset dy="4"/>
<feGaussianBlur stdDeviation="2"/>
<feComposite in2="hardAlpha" operator="out"/>
<feColorMatrix type="matrix" values="0 0 0 0 0 0 0 0 0 0 0 0 0 0 0 0 0 0 0.4 0"/>
<feBlend mode="normal" in2="BackgroundImageFix" result="effect1_dropShadow_38_10641"/>
<feBlend mode="normal" in="SourceGraphic" in2="effect1_dropShadow_38_10641" result="shape"/>
</filter>
<filter id="filter10_d_38_10641" x="409.091" y="0" width="59.3636" height="73" filterUnits="userSpaceOnUse" color-interpolation-filters="sRGB">
<feFlood flood-opacity="0" result="BackgroundImageFix"/>
<feColorMatrix in="SourceAlpha" type="matrix" values="0 0 0 0 0 0 0 0 0 0 0 0 0 0 0 0 0 0 127 0" result="hardAlpha"/>
<feOffset dy="4"/>
<feGaussianBlur stdDeviation="2"/>
<feComposite in2="hardAlpha" operator="out"/>
<feColorMatrix type="matrix" values="0 0 0 0 0 0 0 0 0 0 0 0 0 0 0 0 0 0 0.4 0"/>
<feBlend mode="normal" in2="BackgroundImageFix" result="effect1_dropShadow_38_10641"/>
<feBlend mode="normal" in="SourceGraphic" in2="effect1_dropShadow_38_10641" result="shape"/>
</filter>
<filter id="filter11_d_38_10641" x="361.364" y="0" width="52.5455" height="73" filterUnits="userSpaceOnUse" color-interpolation-filters="sRGB">
<feFlood flood-opacity="0" result="BackgroundImageFix"/>
<feColorMatrix in="SourceAlpha" type="matrix" values="0 0 0 0 0 0 0 0 0 0 0 0 0 0 0 0 0 0 127 0" result="hardAlpha"/>
<feOffset dy="4"/>
<feGaussianBlur stdDeviation="2"/>
<feComposite in2="hardAlpha" operator="out"/>
<feColorMatrix type="matrix" values="0 0 0 0 0 0 0 0 0 0 0 0 0 0 0 0 0 0 0.4 0"/>
<feBlend mode="normal" in2="BackgroundImageFix" result="effect1_dropShadow_38_10641"/>
<feBlend mode="normal" in="SourceGraphic" in2="effect1_dropShadow_38_10641" result="shape"/>
</filter>
<filter id="filter12_d_38_10641" x="306.818" y="0" width="59.3636" height="73" filterUnits="userSpaceOnUse" color-interpolation-filters="sRGB">
<feFlood flood-opacity="0" result="BackgroundImageFix"/>
<feColorMatrix in="SourceAlpha" type="matrix" values="0 0 0 0 0 0 0 0 0 0 0 0 0 0 0 0 0 0 127 0" result="hardAlpha"/>
<feOffset dy="4"/>
<feGaussianBlur stdDeviation="2"/>
<feComposite in2="hardAlpha" operator="out"/>
<feColorMatrix type="matrix" values="0 0 0 0 0 0 0 0 0 0 0 0 0 0 0 0 0 0 0.4 0"/>
<feBlend mode="normal" in2="BackgroundImageFix" result="effect1_dropShadow_38_10641"/>
<feBlend mode="normal" in="SourceGraphic" in2="effect1_dropShadow_38_10641" result="shape"/>
</filter>
<filter id="filter13_d_38_10641" x="218.182" y="0" width="59.3636" height="73" filterUnits="userSpaceOnUse" color-interpolation-filters="sRGB">
<feFlood flood-opacity="0" result="BackgroundImageFix"/>
<feColorMatrix in="SourceAlpha" type="matrix" values="0 0 0 0 0 0 0 0 0 0 0 0 0 0 0 0 0 0 127 0" result="hardAlpha"/>
<feOffset dy="4"/>
<feGaussianBlur stdDeviation="2"/>
<feComposite in2="hardAlpha" operator="out"/>
<feColorMatrix type="matrix" values="0 0 0 0 0 0 0 0 0 0 0 0 0 0 0 0 0 0 0.4 0"/>
<feBlend mode="normal" in2="BackgroundImageFix" result="effect1_dropShadow_38_10641"/>
<feBlend mode="normal" in="SourceGraphic" in2="effect1_dropShadow_38_10641" result="shape"/>
</filter>
<filter id="filter14_d_38_10641" x="163.636" y="0" width="59.3636" height="73" filterUnits="userSpaceOnUse" color-interpolation-filters="sRGB">
<feFlood flood-opacity="0" result="BackgroundImageFix"/>
<feColorMatrix in="SourceAlpha" type="matrix" values="0 0 0 0 0 0 0 0 0 0 0 0 0 0 0 0 0 0 127 0" result="hardAlpha"/>
<feOffset dy="4"/>
<feGaussianBlur stdDeviation="2"/>
<feComposite in2="hardAlpha" operator="out"/>
<feColorMatrix type="matrix" values="0 0 0 0 0 0 0 0 0 0 0 0 0 0 0 0 0 0 0.4 0"/>
<feBlend mode="normal" in2="BackgroundImageFix" result="effect1_dropShadow_38_10641"/>
<feBlend mode="normal" in="SourceGraphic" in2="effect1_dropShadow_38_10641" result="shape"/>
</filter>
<filter id="filter15_d_38_10641" x="109.091" y="0" width="59.3636" height="73" filterUnits="userSpaceOnUse" color-interpolation-filters="sRGB">
<feFlood flood-opacity="0" result="BackgroundImageFix"/>
<feColorMatrix in="SourceAlpha" type="matrix" values="0 0 0 0 0 0 0 0 0 0 0 0 0 0 0 0 0 0 127 0" result="hardAlpha"/>
<feOffset dy="4"/>
<feGaussianBlur stdDeviation="2"/>
<feComposite in2="hardAlpha" operator="out"/>
<feColorMatrix type="matrix" values="0 0 0 0 0 0 0 0 0 0 0 0 0 0 0 0 0 0 0.4 0"/>
<feBlend mode="normal" in2="BackgroundImageFix" result="effect1_dropShadow_38_10641"/>
<feBlend mode="normal" in="SourceGraphic" in2="effect1_dropShadow_38_10641" result="shape"/>
</filter>
<filter id="filter16_d_38_10641" x="54.5455" y="0" width="59.3636" height="73" filterUnits="userSpaceOnUse" color-interpolation-filters="sRGB">
<feFlood flood-opacity="0" result="BackgroundImageFix"/>
<feColorMatrix in="SourceAlpha" type="matrix" values="0 0 0 0 0 0 0 0 0 0 0 0 0 0 0 0 0 0 127 0" result="hardAlpha"/>
<feOffset dy="4"/>
<feGaussianBlur stdDeviation="2"/>
<feComposite in2="hardAlpha" operator="out"/>
<feColorMatrix type="matrix" values="0 0 0 0 0 0 0 0 0 0 0 0 0 0 0 0 0 0 0.4 0"/>
<feBlend mode="normal" in2="BackgroundImageFix" result="effect1_dropShadow_38_10641"/>
<feBlend mode="normal" in="SourceGraphic" in2="effect1_dropShadow_38_10641" result="shape"/>
</filter>
<filter id="filter17_d_38_10641" x="0" y="0" width="59.3636" height="73" filterUnits="userSpaceOnUse" color-interpolation-filters="sRGB">
<feFlood flood-opacity="0" result="BackgroundImageFix"/>
<feColorMatrix in="SourceAlpha" type="matrix" values="0 0 0 0 0 0 0 0 0 0 0 0 0 0 0 0 0 0 127 0" result="hardAlpha"/>
<feOffset dy="4"/>
<feGaussianBlur stdDeviation="2"/>
<feComposite in2="hardAlpha" operator="out"/>
<feColorMatrix type="matrix" values="0 0 0 0 0 0 0 0 0 0 0 0 0 0 0 0 0 0 0.4 0"/>
<feBlend mode="normal" in2="BackgroundImageFix" result="effect1_dropShadow_38_10641"/>
<feBlend mode="normal" in="SourceGraphic" in2="effect1_dropShadow_38_10641" result="shape"/>
</filter>
<linearGradient id="paint0_linear_38_10641" x1="67.085" y1="-5.45449" x2="140.336" y2="170.786" gradientUnits="userSpaceOnUse">
<stop stop-color="#00F2FF"/>
<stop offset="0.295" stop-color="#17DCE9"/>
<stop offset="1" stop-color="#94C422"/>
</linearGradient>
<linearGradient id="paint1_linear_38_10641" x1="67.0849" y1="-5.45449" x2="140.335" y2="170.786" gradientUnits="userSpaceOnUse">
<stop stop-color="#00F2FF"/>
<stop offset="0.295" stop-color="#17DCE9"/>
<stop offset="1" stop-color="#94C422"/>
</linearGradient>
<linearGradient id="paint2_linear_38_10641" x1="67.0849" y1="-5.45449" x2="140.335" y2="170.786" gradientUnits="userSpaceOnUse">
<stop stop-color="#00F2FF"/>
<stop offset="0.295" stop-color="#17DCE9"/>
<stop offset="1" stop-color="#94C422"/>
</linearGradient>
<linearGradient id="paint3_linear_38_10641" x1="67.0849" y1="-5.45449" x2="140.335" y2="170.786" gradientUnits="userSpaceOnUse">
<stop stop-color="#00F2FF"/>
<stop offset="0.295" stop-color="#17DCE9"/>
<stop offset="1" stop-color="#94C422"/>
</linearGradient>
<linearGradient id="paint4_linear_38_10641" x1="67.0849" y1="-5.45449" x2="140.335" y2="170.786" gradientUnits="userSpaceOnUse">
<stop stop-color="#00F2FF"/>
<stop offset="0.295" stop-color="#17DCE9"/>
<stop offset="1" stop-color="#94C422"/>
</linearGradient>
<linearGradient id="paint5_linear_38_10641" x1="67.0849" y1="-5.45449" x2="140.335" y2="170.786" gradientUnits="userSpaceOnUse">
<stop stop-color="#00F2FF"/>
<stop offset="0.295" stop-color="#17DCE9"/>
<stop offset="1" stop-color="#94C422"/>
</linearGradient>
<linearGradient id="paint6_linear_38_10641" x1="67.0849" y1="-5.45449" x2="140.335" y2="170.786" gradientUnits="userSpaceOnUse">
<stop stop-color="#00F2FF"/>
<stop offset="0.295" stop-color="#17DCE9"/>
<stop offset="1" stop-color="#94C422"/>
</linearGradient>
<linearGradient id="paint7_linear_38_10641" x1="67.0849" y1="-5.45448" x2="140.335" y2="170.786" gradientUnits="userSpaceOnUse">
<stop stop-color="#00F2FF"/>
<stop offset="0.295" stop-color="#17DCE9"/>
<stop offset="1" stop-color="#94C422"/>
</linearGradient>
<linearGradient id="paint8_linear_38_10641" x1="67.0849" y1="-5.45448" x2="140.335" y2="170.786" gradientUnits="userSpaceOnUse">
<stop stop-color="#00F2FF"/>
<stop offset="0.295" stop-color="#17DCE9"/>
<stop offset="1" stop-color="#94C422"/>
</linearGradient>
</defs>
</svg>
