<svg width="25" height="28" viewBox="0 0 25 28" fill="none" xmlns="http://www.w3.org/2000/svg">
<path d="M23.9836 12.25L2.98364 0.263756C2.62966 0.0651876 2.22364 -0.0209822 1.81952 0.0166935C1.41539 0.0543693 1.0323 0.214107 0.721121 0.474688C0.409943 0.735269 0.185412 1.08436 0.0773529 1.47558C-0.0307059 1.86681 -0.0171771 2.28165 0.116142 2.66501L3.99114 13.9738C3.99064 13.9779 3.99064 13.9821 3.99114 13.9863C3.99044 13.9904 3.99044 13.9946 3.99114 13.9988L0.116142 25.3325C0.00937442 25.6341 -0.0234976 25.9568 0.020285 26.2737C0.0640676 26.5906 0.183227 26.8924 0.367763 27.1537C0.552298 27.415 0.796825 27.6283 1.08082 27.7755C1.36481 27.9228 1.67999 27.9998 1.99989 28C2.34698 27.9991 2.68797 27.9087 2.98989 27.7375L23.9786 15.7313C24.2882 15.5578 24.5461 15.3051 24.7258 14.9991C24.9055 14.6931 25.0006 14.3448 25.0012 13.99C25.0018 13.6351 24.908 13.2864 24.7294 12.9798C24.5508 12.6732 24.2939 12.4195 23.9849 12.245L23.9836 12.25ZM1.99989 26V25.9888L5.76739 15H12.9999C13.2651 15 13.5195 14.8947 13.707 14.7071C13.8945 14.5196 13.9999 14.2652 13.9999 14C13.9999 13.7348 13.8945 13.4804 13.707 13.2929C13.5195 13.1054 13.2651 13 12.9999 13H5.77739L2.00739 2.01501L1.99989 2.00001L22.9999 13.9788L1.99989 26Z" fill="white"/>
</svg>
